<svg xmlns="http://www.w3.org/2000/svg" viewBox="0 0 512 512" width="100%" height="100%">
  <rect width="512" height="512" rx="112" fill="#1a365d"/>
  
  <g transform="translate(128, 112)" fill="none" stroke="#ffffff" stroke-width="16" stroke-linecap="round" stroke-linejoin="round">
    <path d="M48,0 L160,0 L208,48 L208,240 L48,240 Z" stroke="#2b6cb0" stroke-width="12" fill="#1e293b" fill-opacity="0.3"/>
    <path d="M160,0 L160,48 L208,48" stroke="#2b6cb0" stroke-width="12"/>
    
    <line x1="128" y1="50" x2="128" y2="230"/>
    <line x1="96" y1="230" x2="160" y2="230"/>
    <circle cx="128" cy="40" r="12" fill="#ffffff" stroke="none"/>
    
    <line x1="48" y1="80" x2="208" y2="80"/>
    
    <line x1="48" y1="80" x2="24" y2="150"/>
    <line x1="48" y1="80" x2="72" y2="150"/>
    <path d="M16,150 Q48,170 80,150 Z" fill="#2b6cb0" fill-opacity="0.2"/>
    
    <line x1="208" y1="80" x2="184" y2="150"/>
    <line x1="208" y1="80" x2="232" y2="150"/>
    <path d="M176,150 Q208,170 240,150 Z" fill="#2b6cb0" fill-opacity="0.2"/>
  </g>
</svg>
